<svg width="32" height="32" viewBox="0 0 32 32" xmlns="http://www.w3.org/2000/svg" fill="none" stroke="#FFFFFF" stroke-width="2" stroke-linejoin="round" stroke-linecap="round"><path d="M12.58 6.07L13.42 2.75A13.5 13.5 0 0 1 18.58 2.75L19.42 6.07A10.5 10.5 0 0 1 20.60 6.56L23.55 4.81A13.5 13.5 0 0 1 27.19 8.45L25.44 11.40A10.5 10.5 0 0 1 25.93 12.58L29.25 13.42A13.5 13.5 0 0 1 29.25 18.58L25.93 19.42A10.5 10.5 0 0 1 25.44 20.60L27.19 23.55A13.5 13.5 0 0 1 23.55 27.19L20.60 25.44A10.5 10.5 0 0 1 19.42 25.93L18.58 29.25A13.5 13.5 0 0 1 13.42 29.25L12.58 25.93A10.5 10.5 0 0 1 11.40 25.44L8.45 27.19A13.5 13.5 0 0 1 4.81 23.55L6.56 20.60A10.5 10.5 0 0 1 6.07 19.42L2.75 18.58A13.5 13.5 0 0 1 2.75 13.42L6.07 12.58A10.5 10.5 0 0 1 6.56 11.40L4.81 8.45A13.5 13.5 0 0 1 8.45 4.81L11.40 6.56A10.5 10.5 0 0 1 12.58 6.07Z"/><circle cx="16" cy="16" r="5.2"/></svg>
